<svg width="160" height="161" viewBox="0 0 160 161" fill="none" xmlns="http://www.w3.org/2000/svg">
<rect y="0.496521" width="160" height="160" rx="25" fill="#0F0D23"/>
<path d="M91.7202 80.3911C91.7202 74.1156 86.4732 69.0275 80 69.0275C73.5276 69.0275 68.2798 74.1156 68.2798 80.3911C68.2798 86.6675 73.5276 91.7552 80 91.7552C86.4732 91.7552 91.7202 86.6675 91.7202 80.3911Z" fill="#53C1DE"/>
<path fill-rule="evenodd" clip-rule="evenodd" d="M118.064 59.294C120.539 49.5424 123.65 31.4592 112.683 25.3285C101.767 19.2244 87.5618 30.9209 80.0608 37.9417C72.5818 30.9909 57.9776 19.3444 47.0196 25.4946C36.1079 31.6191 39.4728 49.4025 42.0027 59.2152C31.8239 62.0183 14.375 68.0558 14.375 80.3911C14.375 92.6914 31.8057 99.26 41.9243 102.06C39.385 111.927 36.1886 129.457 47.1143 135.568C58.1132 141.717 72.6719 130.347 80.2424 123.25C87.7914 130.312 101.86 141.756 112.778 135.628C123.731 129.48 120.878 111.64 118.348 101.77C128.157 98.9634 145.625 92.5378 145.625 80.3911C145.625 68.1743 128.083 62.0878 118.064 59.294ZM116.821 96.5396C115.16 91.441 112.918 86.0191 110.175 80.4182C112.793 74.9495 114.948 69.5975 116.563 64.5317C123.907 66.5963 140.018 71.3147 140.018 80.3911C140.018 89.5528 124.558 94.3158 116.821 96.5396ZM109.969 130.923C101.823 135.495 89.7217 124.551 84.1466 119.35C87.8452 115.428 91.5412 110.869 95.1484 105.805C101.494 105.26 107.488 104.367 112.925 103.149C114.705 110.13 118.151 126.33 109.969 130.923ZM49.9158 130.858C41.7688 126.303 45.4925 110.66 47.3606 103.392C52.7365 104.545 58.6876 105.375 65.048 105.875C68.6788 110.829 72.482 115.383 76.3145 119.371C71.5794 123.813 58.1009 135.433 49.9158 130.858ZM19.9815 80.3911C19.9815 71.1953 35.9966 66.511 43.5083 64.4516C45.151 69.6312 47.3054 75.047 49.9054 80.5236C47.2717 86.0816 45.0865 91.5832 43.4287 96.824C36.2661 94.836 19.9815 89.5926 19.9815 80.3911ZM49.8287 30.1995C58.0091 25.6085 70.7018 36.7895 76.1321 41.8221C72.3193 45.792 68.5511 50.3116 64.9513 55.2375C58.7786 55.7922 52.8695 56.683 47.4373 57.8765C45.3992 49.9621 41.6571 34.7856 49.8287 30.1995ZM99.1594 61.1463C103.347 61.6586 107.36 62.3403 111.127 63.1741C109.996 66.689 108.586 70.3645 106.926 74.1322C104.519 69.7047 101.936 65.366 99.1594 61.1463ZM80.0626 45.707C82.6486 48.4233 85.2386 51.4566 87.7866 54.7475C82.6184 54.5103 77.4419 54.5095 72.2738 54.744C74.8239 51.4836 77.4362 48.4548 80.0626 45.707ZM53.1222 74.1283C51.4894 70.3736 50.0924 66.682 48.9516 63.1168C52.6964 62.3044 56.69 61.6403 60.8506 61.1363C58.0664 65.3468 55.4873 69.6837 53.1222 74.1283ZM60.9701 100.034C56.6721 99.5689 52.618 98.9385 48.8743 98.1483C50.0332 94.5206 51.4609 90.7493 53.1286 86.9138C55.5262 91.4047 58.1447 95.7836 60.9701 100.034ZM80.2179 115.459C77.5605 112.679 74.9097 109.604 72.321 106.296C77.5185 106.494 82.7261 106.495 87.9231 106.27C85.3673 109.638 82.7864 112.717 80.2179 115.459ZM106.979 86.7186C108.734 90.5958 110.212 94.3464 111.387 97.9129C107.581 98.7551 103.473 99.4333 99.1437 99.9368C101.941 95.6371 104.565 91.231 106.979 86.7186ZM92.0194 100.596C84.0692 101.147 76.0695 101.14 68.1166 100.641C63.5977 94.2406 59.5749 87.5096 56.1024 80.5219C59.5582 73.5486 63.5518 66.8308 68.0493 60.4406C76.0078 59.8575 84.0154 59.8557 91.9739 60.4441C96.4329 66.8338 100.42 73.5341 103.956 80.4445C100.462 87.4143 96.4478 94.1456 92.0194 100.596ZM109.883 30.0379C118.065 34.6139 114.423 50.8658 112.635 57.9329C107.19 56.7145 101.277 55.808 95.0863 55.2445C91.4796 50.2654 87.7429 45.7379 83.9917 41.8193C89.4916 36.6783 101.779 25.5067 109.883 30.0379Z" fill="#53C1DE"/>
<circle cx="80.0003" cy="80.4965" r="16.3333" fill="#53C1DE"/>
<path d="M88.5005 77.8984C90.5005 79.0531 90.5005 81.9398 88.5005 83.0945L78.0005 89.1567C76.0005 90.3114 73.5005 88.868 73.5005 86.5586V74.4343C73.5005 72.1249 76.0005 70.6815 78.0005 71.8362L88.5005 77.8984Z" fill="#0F0D23"/>
</svg>
